<?xml version="1.0" encoding="UTF-8"?>
<svg id="Layer_1" data-name="Layer 1" xmlns="http://www.w3.org/2000/svg" xmlns:xlink="http://www.w3.org/1999/xlink" viewBox="0 0 681.29 249.58">
  <defs>
    <style>
      .cls-1, .cls-2, .cls-3, .cls-4, .cls-5 {
        fill-rule: evenodd;
      }

      .cls-1, .cls-2, .cls-4, .cls-5 {
        stroke-width: 0px;
      }

      .cls-2 {
        fill: #b91c22;
      }

      .cls-3 {
        stroke: #fff;
        stroke-miterlimit: 10;
        stroke-width: 6.43px;
      }

      .cls-3, .cls-4 {
        fill: #fff;
      }

      .cls-5 {
        fill: url(#GradientFill_1);
      }
    </style>
    <linearGradient id="GradientFill_1" data-name="GradientFill 1" x1="338.57" y1="224.12" x2="368.29" y2="26.74" gradientUnits="userSpaceOnUse">
      <stop offset="0" stop-color="#b91c22"/>
      <stop offset="1" stop-color="#e50013"/>
    </linearGradient>
  </defs>
  <path class="cls-5" d="m340.75,0c120.24,0,217.89,96.62,219.6,216.45H121.14C122.85,96.62,220.51,0,340.75,0Z"/>
  <path class="cls-2" d="m559.86,216.45h121.44l-121.39-4.13s-.09,3.91-.05,4.13Z"/>
  <polygon class="cls-2" points="88.39 237.05 88.23 237.05 17.95 237.05 88.26 233.1 88.26 233.09 88.31 233.09 88.36 233.09 88.36 233.1 158.66 237.05 88.39 237.05"/>
  <polygon class="cls-2" points="583.75 238.32 583.59 238.32 513.31 238.32 583.62 234.37 583.62 234.36 583.67 234.36 583.72 234.36 583.72 234.37 654.02 238.32 583.75 238.32"/>
  <path class="cls-2" d="m121.44,216.45H0l121.39-4.13s.09,3.91.05,4.13Z"/>
  <path class="cls-3" d="m209.3,131.47s3.68-11.55,6.13-18.3c2.45-6.75,4.66-11.79,6.32-13.51,1.66-1.72,1.9-2.09,9.45-2.64,7.55-.55,38.52-1.35,51.77-1.11,13.25.25,37.05,1.17,39.32,1.72,2.27.55,4.42,2.95,6.69,8.47s5.83,15.66,6.87,18.91c1.04,3.26,1.84,5.5,1.84,5.5,0,0,.58-5.74,2.67-7.15,2.09-1.41,8.8-.77,9.97-.03,1.17.74,1.78,1.87,2.09,5.9.31,4.02.08,6.49-.21,7.2-.29.71-.78.74-.78.74,0,0,1.53,2.83.06,4.42-1.47,1.6-4.42.74-5.49.71-1.07-.03-3.34-.92-3.59.18-.25,1.11-.08,3.63.44,3.9,6.22,3.21,9.59,14.03,10.72,18.58,1.35,5.4.67,8.9.67,8.9,0,0,.31,1.97.28,3.75-.03,1.78-.25,2.58-.25,2.58,0,0,1.53,1.01,2.15,3.93.61,2.92,1.17,7.34,1.32,10.72.15,3.38.37,7.17.37,7.17,0,0-.44-.43-.49.08-.05.51.51,1.04.51,1.04l-.02,3.78s-.25.12-.29.87c-.05.75.35.83.35.83l.06,1.66s-.4.64-.34,1.21c.06.57.34.87.34.87l-.09,3.78s-.34,1.41-.28,2.03c.06.61.21.58.21.58,0,0-.21,1.01-.15,1.75.06.74.06.95.06.95,0,0-.18,2-.25,2.79-.06.8-.29,3.76-.29,3.76,0,0-.08,2.32-.29,3.67-.21,1.35-.31,3.62-.46,4.64-.27,1.79-2.26,8.08-4.28,8.14l-16.16-.05c-1.97.05-4.6-3.51-5.11-5.17-.74-2.4-.77-4.45-.77-4.45,0,0-3.13,1.6-5.21.98-2.09-.61-4.23-2.95-4.29-6.39-.06-3.44-.18-7.77-.18-7.77,0,0-5.83-.37-9.75-.95-3.93-.58-7.39-1.38-7.39-1.38l-.43,2.12s-2.67-.55-6.01-.43c-3.34.12-6.01.25-6.03.12-.02-.12-.11-.69-.77-.58-.66.11-1.24.55-1.24.55,0,0-6.38-.09-7.06.03-.67.12-1.66.03-3.8-.12-2.15-.15-5.15.22-5.95.12-.8-.09-2.79-.09-4.05-.25-1.26-.15-2.3.12-2.3.12h-5.95s-.06-.25-.43-.34c-.37-.09-5,.09-5.55.25-.55.15-4.54.09-6.41.03-1.87-.06-2.52.09-2.82.12-.31.03-1.07.46-.95-.31.12-.77-.09-1.84-.09-1.84,0,0-2.67,1.04-5.09,1.38-2.42.34-12.82,1.5-12.82,1.5,0,0-.03,9.33-.4,10.32-.37.98-2.02,3.16-3.65,3.62-1.63.46-5.34.68-5.34.68-.6,1.47-2.45,7.96-5.11,8.02-2.46.05-13.6-.05-17.19.03-2.52.06-4.18-5.5-4.51-7.65-.52-3.38-.45-7.17-.43-7.71.02-.54-.54-.78-.48-2.04.06-1.26.09-4.02.09-4.02,0,0-.37-.68-.22-2.86.15-2.18.31-2.98.31-3.29s-.43-.92-.4-2.3c.03-1.38.09-1.97.25-2.52.15-.55,0-1.26-.03-1.57-.03-.31-.22-.86-.15-1.93.06-1.07.12-1.87.18-2.12.06-.25-.03-1,.01-1.54.05-.54-.08-1.4.08-1.97.15-.57.23-.78.05-1.18-.18-.4-.02-1.69-.02-1.87s-.06-1.41.12-1.97c.18-.55.22-.89.18-1.23-.03-.34-.09-1.23.02-1.63.11-.4.23-.75.18-.97-.05-.22-.2-1.12.08-1.73.28-.61-.02-.69-.02-1.12s.15-1,.29-1.47c.14-.48-.08-.92.28-1.43.35-.51.12-1,.09-1.15-.03-.15-.03-.86.18-1.41.21-.55.37-1,.35-1.15-.02-.15.15-.95.26-1.4.11-.45.06-.91.28-1.18.21-.28.44-.38.72-1.15.28-.77.98-.71,1.07-.34.09.37-.28-4.42.46-6.26.74-1.84-.37.61-.61-5.04-.5-11.6,2.63-18.86,11.53-26.28,1.47-1.23,1.96-1.72,1.96-1.72,0,0-.95-1.63-2.82-1.81-1.87-.18-8.37-1.23-8.99-1.57-.61-.34-1.93-1.07-1.96-3.01-.03-1.93.21-9.03.61-9.95.4-.92.31-1.84,4.75-2.24,4.45-.4,7.54-.28,8.53,1.14.98,1.41,2.25,3.69,2.41,5.16.15,1.47.51,2.54.51,2.54h0Zm174.48,42.51c-.03.63-.06,1.5-.11,2.56-.12.91-.22,1.86-.29,2.84h.18c-.12,2.96-.26,6.55-.38,9.92v-.93c0,.32,0,.64,0,.96-.16,4.48-.28,8.57-.26,10.24-.05,1.45.19,13.22.48,15.4.29,2.17.77,5.6,1.16,6.66.39,1.06.82,1.54.82,1.54,0,0,.29,9.22.29,13.42s.85,8.01,1.45,8.76c.6.75,1.11.53,1.84.53s6.94-.05,6.94-.05c0,0,1.04-1.38,1.14-2.58.1-1.21.27-2.53.27-2.53l5.08.05s1.14-1.54,1.19-2.51c.05-.97.02-2.7.02-2.7,0,0,5.61.14,5.83.1.22-.05.34-.53.15-.82-.19-.29-.28-.75.11-.77.39-.02.68-.18.75.16.07.34.23,1.63.42,1.7.19.07,1.72.02,1.72.02l-.24-2.34s6.41-1.03,7.14-1.32c.73-.29,1.92-1.53,2.06-1.57.13-.04,1.92.59,2.38.77.46.18.87.16,1.08.06.21-.1.18-.11.29.13.11.24.35.43,1.16.36.81-.07,1.56-.11,1.69-.29.13-.18.38-.41.48-.22.11.19.68.3,1.33.19.65-.11,1.44-.27,1.44-.27,0,0,.19.28.58.22.39-.06.47-.31.47-.31l4.17.02s.31.29.68.29.85-.16.85-.16c0,0,1.04.12,1.28.15.24.02.96.08,1.22.06.27-.02.5-.12.5-.12,0,0,.07.45.52.47.45.02,2.48-.04,2.49-.21.01-.17.1-.47.1-.47,0,0,.48.33.82.3.34-.02.82-.34.82-.34h2.83s1.71,1.23,2.08,1.33c.37.1,8.53,1.51,8.53,1.51l.12,2.53s1.15-.02,1.28-.12c.13-.1.18-.46.37-.39.19.07.28.24.67.18.39-.06,8.08-.19,8.08-.19l.07,1.46s-.38.95-.15,1.67c.23.71,2.54,2.12,2.88,1.83.34-.29-.39,4.05,1.31,4.68,1.69.63,7.84.72,8.52-.05.68-.77,1.02-1.74.92-3.52-.1-1.79.24-9.6.15-11.73-.1-2.12.1-7.09.1-7.09,0,0,1.6-3.72,1.69-7.24.1-3.52.08-18.89.08-18.89,0,0,.03-.55.06-1.49h.05s0-1.11,0-1.11c.16-4.77.4-14.86-.31-20-.12-2.74-.5-6.05-.61-8.64.37-.06,5.51-.91,7.56-1.49,2.13-.6,1.38-4.51.99-7.6-.39-3.09-.99-4.56-2.3-4.88-1.31-.31-5.18-.24-6.07.75-.73.81-.66,6.23-.61,8.17-.81-4.16-2.48-12.69-3.31-16.63-1.11-5.33-4.14-12.54-5.32-14.9-1.19-2.36-6.34-8.45-16.5-9.59-10.16-1.14-43.25-1.05-51.58.95-8.32,2-12.24,9.17-12.24,9.17-4.22,6.13-4.4,8.85-6.46,15.75-2.55,8.55-2.42,8.87-3.66,15.79l-.06.41c-.38-.06-.91-.16-1.18-.23-.45-.12.3-.77.54-1.54.24-.77-.57-6.88-.96-8.08-.27-.86-5.77-.75-6.91-.6-1.38.19-1.54,1.14-1.83,1.62-.34.55-.29,6.37-.24,8.4.05,2.03,1.69,2.7,3.77,3.02,1.92.29,5.73.95,6.33,1.05-.38,3.07-.64,5.77-.78,8.37h.02Zm-.5,7.03c.03-.55.06-1.08.1-1.62l-.1,1.62Z"/>
  <path class="cls-4" d="m328.28,42.79c5.47.84,11.17,3.92,12.94,12.6l-5.98-1.66,4.98,3.85s-11.04,4.9-18.13-1.37c.55,5.21-1.1,11.35-9.22,16.09l.06-6.21-2.44,5.8s-5.99-7.41-3.16-15.57c-3.98,1.76-9.29,1.94-16.11-1.93l5.44-2.99-6.26.72s6.48-13.37,17.82-11.13c-4.55-4.25-8.56-11.13-2.95-20.35l3.3,5.26-1.08-6.2s10.92,3.58,12.44,12.44c2.53-3.87,6.77-7.18,13.85-7.55l-3.11,5.37,4.98-3.85s2.88,11.33-7.37,16.67h0Zm-14.33-1.07c-.31-.22-.75-.14-.97.17-.22.31-.14.75.17.97.24.17.55.16.79,0l1.99,1.69-3.32.53-.03-.02c-.31-.22-.75-.14-.97.17-.22.31-.14.75.17.97.32.22.75.14.97-.17.12-.17.15-.36.11-.55l3.14-.5-2.16,2.78c-.23-.01-.46.09-.6.3-.22.31-.14.75.17.97.31.22.75.14.97-.17.21-.3.15-.7-.12-.93l2.1-2.7,1.33,3.27s-.05.05-.07.08c-.22.31-.14.75.17.97.31.22.75.14.97-.17.22-.32.14-.75-.17-.97-.16-.11-.34-.15-.52-.12l-1.34-3.31,3.91.96c.05.14.13.26.26.35.31.22.75.14.97-.17.22-.31.14-.75-.17-.97-.31-.22-.75-.14-.97.17-.04.05-.07.11-.09.17l-3.81-.94,2.34-2.64c.29.1.62,0,.81-.26.22-.32.14-.75-.17-.97-.31-.22-.75-.14-.97.17-.17.24-.16.55,0,.78l-2.27,2.56-.17-3.28c.14-.04.27-.13.36-.26.22-.31.14-.75-.17-.97-.31-.22-.75-.14-.97.17-.22.31-.14.75.17.97.06.04.11.07.18.09l.16,3.2-1.91-1.62c.1-.29,0-.62-.26-.8Z"/>
  <path class="cls-4" d="m373.28,71.61c2.31,2.45,3.9,6.06,1.5,10.89l-2.25-3.03.95,3.71s-7.13-1.77-8.19-7.43c-1.68,2.71-4.77,5.04-10.44,4.28l2.35-2.96-3.34,1.88s-.1-5.8,4.3-8.66c-2.57-.64-5.19-2.54-7.02-6.95l3.73.6-3.27-1.99s8.11-4,12.72,1.31c-.6-3.74.05-8.54,6.19-10.87l-.38,3.76,1.8-3.38s3.91,5.8,1.33,10.62c2.66-.91,5.93-.92,9.48,1.55l-3.5,1.42,3.83.02s-2.85,6.52-9.77,5.25h0Zm-6.48-5.87c-.07-.22-.31-.35-.53-.28-.22.07-.35.31-.28.53.05.17.21.29.37.3l.32,1.56-1.79-.99v-.02c-.07-.22-.31-.35-.53-.28-.22.07-.35.31-.28.53.07.22.31.35.53.28.12-.04.21-.12.26-.22l1.69.93-2.08.53c-.11-.09-.26-.13-.4-.08-.22.07-.35.31-.28.53.07.22.31.35.53.28.21-.06.33-.28.29-.49l2.02-.51-.59,2.07s-.04,0-.06.01c-.22.07-.35.31-.28.53.07.22.31.35.53.28.22-.07.35-.31.28-.53-.03-.11-.11-.2-.2-.25l.59-2.09,1.52,1.93c-.03.08-.03.18,0,.27.07.22.31.35.53.28.22-.07.35-.31.28-.53-.07-.22-.31-.35-.53-.28-.04.01-.07.03-.1.05l-1.48-1.88,2.11-.39c.1.16.3.24.48.18.22-.07.35-.31.28-.53-.07-.22-.31-.35-.53-.28-.17.05-.28.2-.3.37l-2.05.38,1.15-1.64c.08.03.18.04.27,0,.22-.07.35-.31.28-.53-.07-.22-.31-.35-.53-.28-.22.07-.35.31-.28.53.01.04.03.08.05.11l-1.12,1.6-.31-1.49c.16-.1.23-.3.18-.48Z"/>
  <path class="cls-1" d="m237.68,116.43c4.56-.55,8.81-.9,12.68.26,4.75,2,5.35,8.8,5.35,8.8,0,0,1.84.03,3.65.21,1.81.18,2.3,3.16,2.48,4.39.18,1.23,1.04.37,1.04.37,0,0,1.04-1.17,2.15-1.9,1.1-.74,4.42-.98,11.78-1.23,7.36-.25,15.95-.98,15.95-.98-1.28-5.27.44-12.65,7.65-13.57-3.39-.07-6.78-.14-10.17-.21,0,0-44.66.18-48.64.43-3.99.25-3.93,3.44-3.93,3.44h0Zm1.48,9.69s-1.6-.31-1.47-2.18c.12-1.87,2.45-2.67,5.09-2.7,2.64-.03,4.75.06,6.04,1.11,1.29,1.04,1.93,3.16-.03,3.22-1.96.06-4.94.09-6.63.22-1.69.12-3.01.34-3.01.34h0Zm63.83-7.83c4.99.11,6.53.37,7.24,2.27.71,1.9-.09,2.89-2.91,2.89s-6.87.03-7.91-.34c-2.05-.72-1.4-4.93,3.59-4.82h0Zm-80.67,33.2c-4.53,0-8.19,3.67-8.19,8.2s3.67,8.2,8.19,8.2,8.19-3.67,8.19-8.2-3.67-8.2-8.19-8.2h0Zm102.9,0c-4.53,0-8.19,3.67-8.19,8.2s3.67,8.2,8.19,8.2,8.19-3.67,8.19-8.2-3.67-8.2-8.19-8.2h0Zm-116.22-.66h-6.8s-2.06,3.72-2.06,8.38-.06,6.02,2.94,6.33c3.01.31,5.04.19,5.04.19l.87-14.9h0Zm129.36.46l.49,14.56,8.95-.12s-.12-3.75-.37-8.41c-.25-4.67-2.61-6.02-2.61-6.02h-6.46Zm-30.97,19.32c-.31-4.01-.81-10.19-1.13-12.98-.49-4.3-4.66-8.6-8.71-9.7-.78-.21-2.07-.37-3.67-.48v10.3c5.05.39,7.33,4.57,7.57,5.1.25.55,1.59.71,1.78,3.84.18,3.13-.55,4.48-.94,4.68-.38.2-.81.26-.81.26,0,0-1.67,4.51-6.55,5.16-4.88.65-7.33-1.26-8.37-2.4-1.04-1.14-1.84-2.73-1.84-2.73,0,0-1.37-.25-1.53-1.15-.17-.91-.2-4.76.05-5.83.25-1.07,1.08-1.61,1.08-1.61,0,0,2.72-4.57,7.59-5.26v-10.47c-6.94-.31-17.22-.07-18.93-.02-1.75.05-11.89.09-16.85.11v10.36c4.78.56,6.95,4.55,7.18,5.06.25.55,1.59.71,1.78,3.84.18,3.13-.55,4.48-.94,4.68-.38.2-.81.26-.81.26,0,0-1.67,4.51-6.55,5.16-4.88.65-7.33-1.26-8.37-2.4-1.04-1.14-1.84-2.73-1.84-2.73,0,0-1.36-.25-1.53-1.15-.17-.91-.2-4.76.05-5.83.25-1.07,1.08-1.61,1.08-1.61,0,0,2.86-4.81,7.97-5.3v-10.33h-.73s-9.32,2.03-10.67,7.99c-.89,3.94-1.73,10.71-2.2,14.86-.17,4.34-.83,9.37,2.75,11.52l61.69-.57c1.81-2.42,3.19-4.38,2.44-10.62h0Zm7.9,21.14l-82.83.03c-.12-5.48-2.05-15.85,3.24-21.31.45-3.82,1.33-9.97,2.9-15.3,1.6-5.16,4.66-12.41,22.08-12.28,17.42.12,34.97-.43,37.91.92,2.94,1.35,10.35,5.71,11.23,11.91.87,6.21,1.57,11.15,2.03,14.92,4.39.25,5.02,16,3.44,21.11h0Zm-104.93-56.71s1.67-6.38,3.3-12.22c1.63-5.84,7.47-19.55,8.82-21.45,1.36-1.9,1.99-2.04,5.84-2.26,3.85-.23,32.26-1.63,52.99-1.36,20.73.27,40.09.72,42.27,2.44,2.17,1.72,9.14,20.64,10.95,26.43,1.81,5.79,3.17,9.41,3.17,9.41-1.72-.1-9.17-.71-2.36-1.45-1.08-3.62-5.13-15.04-6.12-17.97-1.18-3.48-5.97-14.96-7.02-15.27-1.04-.32-31.43-2.38-50.16-2.29-18.73.09-47.42,1.27-48.15,2.44-.72,1.18-5.79,13.49-7.78,19.91-1.99,6.43-4.3,13.21-1.95,13.17,2.35-.05,8.73.14,8.73.14,0,0-10.23.68-11.45.77-1.22.09-1.08-.45-1.08-.45h0Zm62.86-29.68l-7.03.11s-1.99.29-2.13,1.67c-.14,1.38-.18,3.04.86,3.09,1.04.05,18.14-.38,18.14-.38,0,0,.45-4.44-1.96-4.47-2.41-.03-6.71-.07-6.71-.07l-.14-2.62-1.03-.03v2.69h-.01Zm-70.79,45.07s1.45-3.98,3.85-4.12c2.4-.14,27.11-.09,27.11-.09,0,0,.32-1.31,1.22-1.45.91-.14,13.58-.59,13.58-.59,0,0-4.34,1.72-5.66,3.26-1.31,1.54-2.62,3.21-2.62,3.21l-37.47-.23h0Zm99.05-5.77l12.72.41s-.18,1.54.23,1.54,24.71.41,24.71.41c0,0,3.17.41,4.03,1.36.86.95,1.22,2.67,1.22,2.67l-35.66-.05s-1.99-2.01-4.07-3.87c-2.08-1.86-3.17-2.47-3.17-2.47h0Zm-18.12-4.8s18.64-.07,19.66-.23c1.02-.16.05-2.81-.79-3.35,0,0-13.39,0-15.84.23-2.44.23-3.03,3.35-3.03,3.35h0Zm-83.15,26.09l7.83.32s7.38,4.43,7.87,4.53c.5.09,18.1-.27,18.1-.27l-1.09,2.94-32.67.09-.04-7.6h0Zm112.65,4.81l17.57-.09s3.39-.09,5.79-1.63c2.4-1.54,2.76-2.13,2.76-2.13l6.29-.14s1.76-.02,2.08-.38c.32-.36-.14,6.99-.14,6.99-10.76.03-21.9.04-32.66.07-.31-1.14-.96-2.19-1.7-2.69h0Zm7.91-68.35c-1.64-.14-2.98.59-2.98,1.64s1.33,2.01,2.98,2.16c1.64.14,2.98-.59,2.98-1.64s-1.33-2.01-2.98-2.16h0Zm-124.21,21.84s6.43-.34,6.88.16c.45.5,3.48,4.77,3.48,4.77,0,0-1.1-3.61-2.73-5.17-.97-.75-4.17-.71-5.73-.48-1.56.23-1.9.72-1.9.72h0Zm143.88,5.48s1.49-4.93,3.08-5.29c1.58-.36,5.09-.36,5.09-.36,0,0-5.38-1.29-6.79-.09-1.63,1.83-1.38,5.75-1.38,5.75h0Zm-130.37,11.56c2.08.05,5.02,2.31,10.77,2.49,5.75.18,10.23,0,10.23,0,0,0-.93-2.72-.79-3.08.14-.36.75-.68,1.31-.18.57.5,2.19,1.13,2.19,1.13,0,0,20.41-.63,39.05-.72,18.64-.09,31.36.86,34.98.95,3.62.09,6.88.36,6.88.36,0,0,1.09-1.31,1.45-1.18.36.14,1.27,1.04,1.27,1.04l-.81,2.31s10.86-.09,14.3-.91c3.44-.81,5.97-1.81,5.97-1.81,0,0,1.58-1.63,2.31-.68.72.95.23,5.52-.32,5.52s-9.32.05-14.8-.14c-5.48-.18-9.54-.09-9.54-.09-.31-.49-.15-1.27-.03-1.54l-13.7-.46s-.34-.33-1.99-.89c-1.65-.57-3.82-.83-6.99-.83s-35.25.02-35.25.02c-1.98.3-6.52.94-7.75,1.34,0,0-.49-.11-5.42.07-4.93.18-8.79.29-8.79.29-.72.21-1.5,1.37-1.53,1.63l-26.29.07s-1.27.11-2.06.59c-.79.48-1.09,1-1.09,1,.47-2.54,3.84-6.36,6.44-6.3h0Zm8.83-2.04s-8.82-.23-7.53.95c1.29,1.18,4.12,2.22,6.24,2.58,2.13.36,4.03.36,4.03.36,0,0-3.85-.84-6.11-1.86-2.26-1.02-2.4-1.47-.95-1.52,1.45-.05,4.32-.52,4.32-.52h0Zm7.07-.38s-9.24.27-7.98,1.4c1.27,1.13,5.66,1.92,6.83,1.79,1.18-.14,1.32-.41,1.32-.41l-5.55-1.72s4.05-.45,5-.54c.95-.09.97-.43.37-.52h0Zm105.35.81s3.21.77,2.04,1.31c-1.18.54-6.34,2.13-6.34,2.13,0,0,2.58.41,5.97-.86,3.39-1.27,3.12-2.44,3.12-2.44,0,0-1.95-.41-2.9-.36-.95.05-1.9.23-1.9.23h0Zm-100.37-.95c-.17-.17-1.62-1.44-1.9-1.49-.11-.02-.17.33-.23.97-.06.64-1.13.69-1.13.69,0,0,.6.58.98,1.05.38.48,1.41,1.61,1.41,1.61,0,0-.45-1.14-.11-1.62.34-.48,1.92.08,1.92.08,0,0-.04-.38-.95-1.29h0Zm85.28,1.41s.63-.03,1.15.17c.52.2.84,1.17.84,1.17l1.24-1.92s-.29.16-.97,0c-.68-.16-.45-1.67-.45-1.67,0,0-.04.07-.72.68-.68.61-1.09,1.58-1.09,1.58h0Zm30.85-1.43s.52.44,1.57.09c1.05-.35,1.31-1.11,1.31-1.11,0,0-.18-.09-1.79.18-1.61.27-1.1.84-1.1.84h0Zm-4.38-.19s.79-.25,1.43-.65c.63-.4.69-1.54-.24-.92-.93.62-1.19,1.56-1.19,1.56h0Zm-.26,2.73s.6-.29,1.37-.77c.77-.48,2.59-.86,2.59-.86,0,0-.67-.41-1.84-.06-1.18.35-2.12,1.69-2.12,1.69h0Zm-1.47.65s.45-1.63,1.33-2.49c.88-.86,1.02-.29.59.07-.43.36-1.17,1.35-1.39,1.64-.23.29-.53.78-.53.78h0Zm-113.43,12.51c1.33,1.33,2.15,3.17,2.15,5.2s-.82,3.87-2.15,5.2c-1.33,1.33-3.17,2.15-5.2,2.15s-3.87-.82-5.2-2.15c-1.33-1.33-2.15-3.17-2.15-5.2s.82-3.87,2.15-5.2,3.17-2.15,5.2-2.15,3.87.82,5.2,2.15h0Zm-5.2-2.45c2.11,0,4.03.86,5.41,2.24,1.38,1.39,2.24,3.3,2.24,5.41s-.86,4.03-2.24,5.41c-1.38,1.39-3.3,2.24-5.41,2.24s-4.03-.86-5.41-2.24c-1.39-1.38-2.24-3.3-2.24-5.41s.86-4.03,2.24-5.41c1.38-1.38,3.3-2.24,5.41-2.24h0Zm1.91,5.74c.49.49.79,1.16.79,1.91s-.3,1.42-.79,1.91c-.49.49-1.16.79-1.91.79s-1.42-.3-1.91-.79c-.49-.49-.79-1.16-.79-1.91s.3-1.42.79-1.91c.49-.49,1.16-.79,1.91-.79s1.42.3,1.91.79h0Zm-1.91-1.09c.83,0,1.58.34,2.12.88.54.54.88,1.29.88,2.12s-.34,1.58-.88,2.12c-.54.54-1.29.88-2.12.88s-1.58-.34-2.12-.88c-.54-.54-.88-1.29-.88-2.12s.34-1.58.88-2.12c.54-.54,1.29-.88,2.12-.88h0Zm108.18-1.99c1.29,1.29,2.09,3.07,2.09,5.04s-.8,3.75-2.09,5.04c-1.29,1.29-3.07,2.09-5.04,2.09s-3.75-.8-5.04-2.09c-1.29-1.29-2.09-3.07-2.09-5.04s.8-3.75,2.09-5.04c1.29-1.29,3.07-2.09,5.04-2.09s3.75.8,5.04,2.09h0Zm-5.04-2.39c2.05,0,3.91.83,5.25,2.17,1.34,1.34,2.17,3.2,2.17,5.25s-.83,3.91-2.17,5.25c-1.34,1.34-3.2,2.17-5.25,2.17s-3.91-.83-5.25-2.17c-1.34-1.34-2.17-3.2-2.17-5.25s.83-3.91,2.17-5.25c1.34-1.34,3.2-2.17,5.25-2.17h0Zm2.03,5.4c.52.52.84,1.24.84,2.03s-.32,1.51-.84,2.03c-.52.52-1.24.84-2.03.84s-1.51-.32-2.03-.84c-.52-.52-.84-1.24-.84-2.03s.32-1.51.84-2.03c.52-.52,1.24-.84,2.03-.84s1.51.32,2.03.84h0Zm-2.03-1.14c.87,0,1.67.35,2.24.93.57.57.93,1.37.93,2.24s-.36,1.67-.93,2.24c-.57.57-1.37.93-2.24.93s-1.67-.35-2.24-.93c-.57-.57-.93-1.37-.93-2.24s.35-1.67.93-2.24c.57-.57,1.37-.93,2.24-.93h0Zm-64.47,5.28c1.53,1.53,2.47,3.63,2.47,5.96s-.94,4.44-2.47,5.96c-1.53,1.53-3.63,2.47-5.96,2.47s-4.44-.94-5.96-2.47c-1.53-1.53-2.47-3.63-2.47-5.96s.94-4.44,2.47-5.96c1.53-1.53,3.63-2.47,5.96-2.47s4.44.94,5.96,2.47h0Zm-5.96-2.77c2.41,0,4.6.98,6.18,2.56,1.58,1.58,2.56,3.76,2.56,6.18s-.98,4.6-2.56,6.18c-1.58,1.58-3.76,2.56-6.18,2.56s-4.59-.98-6.18-2.56c-1.58-1.58-2.56-3.76-2.56-6.18s.98-4.59,2.56-6.18c1.58-1.58,3.76-2.56,6.18-2.56h0Zm44.03,2.59c1.53,1.53,2.47,3.63,2.47,5.96s-.94,4.44-2.47,5.96c-1.53,1.53-3.63,2.47-5.96,2.47s-4.44-.94-5.96-2.47c-1.53-1.53-2.47-3.63-2.47-5.96s.94-4.44,2.47-5.96c1.53-1.53,3.63-2.47,5.96-2.47s4.44.94,5.96,2.47h0Zm-5.96-2.77c2.41,0,4.6.98,6.18,2.56,1.58,1.58,2.56,3.76,2.56,6.18s-.98,4.6-2.56,6.18c-1.58,1.58-3.76,2.56-6.18,2.56s-4.59-.98-6.18-2.56-2.56-3.76-2.56-6.18.98-4.6,2.56-6.18c1.58-1.58,3.76-2.56,6.18-2.56h0Zm51.75-4.83v.41h-5.68v-.41h5.68Zm.05,1.28v.41h-5.68v-.41h5.68Zm.14,1.13v.41h-5.68v-.41h5.68Zm.1,1.28v.41h-5.68v-.41h5.68Zm-.3-4.69v.41h-5.68v-.41h5.68Zm-.03-1.09v.41h-5.68v-.41h5.68Zm1.36,6.82c.57,1.36-.21,4.43-.87,6.18l-6.17.15-.11-6.19,7.14-.14h0Zm-143.56-5.11v-.41h5.68v.41h-5.68Zm-.23,1.28v-.41h5.68v.41h-5.68Zm-.14,1.13v-.41h5.68v.41h-5.68Zm-.27,1.2v-.41h5.68v.41h-5.68Zm.72-4.69v-.41h5.68v.41h-5.68Zm.2-.84v-.41h5.68v.41h-5.68Zm-1.72,6.84l6.97.15-.41,6.18-6.35-.15c-.68-1.74-.8-4.82-.22-6.18h0Zm38.42-7.39s-1.65-.11-2.85.7c-1.2.81-1.18,2.51-1.18,2.51l2.78-.02s.25-.7.38-1.15c.14-.45.81-1.9.86-2.04h0Zm-1.81,5.11s-1.8-.29-2.09.23c-.29.52-.26,2.15-.26,2.15l1.77.03c.06,0,.48-1.79.59-2.41h0Zm-.95,4.18s-1.09-.18-1.31.07c-.23.25-.24,2.28-.24,2.28l1.09.09.46-2.44h0Zm-.63,4.43l-1.41-.05s-.09,1.07.16,1.78c.25.71.85.87.85.87l.4-2.6h0Zm9.83-13.25h7.58s-.07,3.12-.07,3.12l-9.19.05s-.02-.84.52-1.74c.54-.9,1.15-1.43,1.15-1.43h0Zm-2.42,4.74l9.77-.14-.02,1.26c-1.23.2-2.08.47-3.23,1.19l-7.71.23s.17-1.45.29-1.99.89-.55.89-.55h0Zm-1.35,4.3c1.79-.08,3.8-.17,5.6-.25-.8.9-2.34,2.57-2.51,3.01l-3.45.02.36-2.78h0Zm-.54,4.31c1.03,0,1.91.04,2.94.03-.15,1.06-.15,1.69-.18,3.39l-3.15-.12.38-3.3h0Zm-.5,4.92l3.24.05s.01,1.37.74,1.71c.72.34.84.29.84.29l.57,1.09-5.95-.07s.14-1.31.23-1.95c.09-.63.35-1.12.35-1.12h0Zm15.48-15.14v-2.9h34.66v2.9h-34.66Zm16.44,1.35s-1.03,1.78-1.03,1.94.45.91.45.91c-3.98.05-8.29.04-12.27.08-1.43-.84-2.58-1.22-3.82-1.41l.05-1.63,16.62.11h0Zm-11.49,4.04l8.85-.03-1.81,2.85h-4.64c-.74-1.04-1.49-1.95-2.4-2.82h0Zm13.48-4.05h16.37v1.54s-1.06.16-1.71.41c-.64.25-1.02.61-1.02.61h-12.86l.45-.69-1.23-1.87h0Zm2.75,4.38h8.26c-.6.59-1.95,1.57-2.31,2.77h-4.7l-1.26-2.77h0Zm-12.68,4.12c5.84,0,11.96.02,17.8.02-.34,1.1-.28,2.62-.19,3.82l-17.38.09c.19-1.18,0-2.76-.23-3.94h0Zm-.17,5.63h17.63s.29.91.95,1.33c.66.42,1.01.46,1.01.46l.29.53-21.69.14.33-.77s.67-.01,1.03-.58c.36-.57.45-1.11.45-1.11h0Zm9.11-14.87l1.64,2.52-1.39,2.4,2.9.02,1.43,3.03h-3.15l-1.42-2.47-1.65,2.4h-3.21l1.71-2.98,2.87.03-1.34-2.35,1.62-2.6h0Zm-23.67,21.28s2.96.97,4.93.91c1.97-.07,4.23-1.09,4.23-1.09l.16,4.45h-9.21s-.11-4.27-.11-4.27h0Zm37.84-.36s2.15,1.11,5.05,1.11,3.8-.81,3.8-.81l.07,4.12-9.02-.02.1-4.39h0Zm-53.81,6.45h79.6v-.34h-79.6v.34h0Zm-1.52,8.17h.77v-8.1h-.77v8.1h0Zm81.41,0h.77v-8.1h-.77v8.1h0Zm-79.89-7.58h79.6v-.34h-79.6v.34h0Zm0,.59h79.6v-.34h-79.6v.34h0Zm0,.59h79.6v-.34h-79.6v.34h0Zm0,.59h79.6v-.34h-79.6v.34h0Zm0,.59h79.6v-.34h-79.6v.34h0Zm0,.59h79.6v-.34h-79.6v.34h0Zm0,.59h79.6v-.34h-79.6v.34h0Zm0,.59h79.6v-.34h-79.6v.34h0Zm0,.59h79.6v-.34h-79.6v.34h0Zm0,.59h79.6v-.34h-79.6v.34h0Zm0,.59h79.6v-.34h-79.6v.34h0Zm0,.59h79.6v-.34h-79.6v.34h0Zm0,.59h79.6v-.34h-79.6v.34h0Zm0,.59h79.6v-.34h-79.6v.34h0Zm0,.52h79.6v-.34h-79.6v.34h0Zm84-17.35s.79,2.15.68,3.85-.62,14.54-.62,14.54c0,0,.11,3.17-.11,4.64-.23,1.47-.74,3.11-.74,3.11l9.39.23s.28-8.54.11-16.35c-.17-7.81.31-9.7.54-10.04.23-.34-9.25.03-9.25.03h0Zm-98.03.03s.28,1.41.34,7.75c.06,6.34-.34,14.42-.23,16.63.11,2.21.57,1.75,2.26,1.81,1.7.06,7.69-.62,7.69-.62,0,0-.62-2.15-1.02-4.41-.4-2.26-.51-10.63-.51-15.16s.45-5.88.45-5.88l-8.99-.11h0Zm111.09,5.6c-.16,0-.28.13-.28.28s.13.28.28.28h22.29c.16,0,.28-.13.28-.28s-.13-.28-.28-.28h-22.29Zm-.14,3c-.16,0-.28.13-.28.28h0c0,.16.13.28.28.28h22.29c.16,0,.28-.13.28-.28h0c0-.16-.13-.28-.28-.28h-22.29Zm.06,2.8c-.16,0-.28.13-.28.28h0c0,.16.13.28.28.28h22.29c.16,0,.28-.13.28-.28h0c0-.16-.13-.28-.28-.28h-22.29Zm-137.1-5.66c-.19,0-.34.15-.34.34s.15.34.34.34h21.89c.19,0,.34-.15.34-.34s-.15-.34-.34-.34h-21.89Zm.06,2.89c-.19,0-.34.15-.34.34s.15.34.34.34h21.89c.19,0,.34-.15.34-.34s-.15-.34-.34-.34h-21.89Zm-.06,2.49c-.19,0-.34.15-.34.34s.15.34.34.34h21.89c.19,0,.34-.15.34-.34s-.15-.34-.34-.34h-21.89Zm99.94-33.55h8.2s.64.61,1.39,1.53c.75.92.89,1.36.89,1.36l-10.52-.06.04-2.83h0Zm-.09,4.4h11.09s.51,1.03.58,1.87c.07.83,0,1.43,0,1.43h-7.03c-1.41-1.09-3.14-1.62-4.71-1.91l.07-1.39h0Zm5.51,4h6.46s.31,3.34.31,3.34l-3.85.04s-.23-.25-.52-.45c-.3-.2-.48-.14-.71-.59-.47-.93-.99-1.59-1.69-2.34h0Zm3.49,4.8h3.4l.3,3.34h-3.4c.15-.79-.05-2.57-.3-3.34h0Zm-.06,5.2h4.05s.1.98.14,1.61c.04.64.03.85.03.85l-6.1-.03c.13-.24.27-.48.4-.72,1.29-.34,1.29-1.03,1.48-1.71h0Zm5.49-18.43s.31.4.67,1.16c.35.76.65,1.92.65,1.92l3.13.03s.25-1.33-.54-2.32c-.79-.99-3.9-.79-3.9-.79h0Zm1.56,4.27s.06.3.26,1.23c.2.93.4,1.78.4,1.78,0,0,1.75.09,1.95-.31.2-.4.06-2.69.06-2.69h-2.67Zm.68,4.16l.51,3.17s1.83,0,1.89-.06c.62-.65.17-3.08.17-3.08l-2.57-.03h0Zm.51,4.55l.4,3.34s.9.23,1.44-.31c.54-.54.68-3.03.68-3.03h-2.52Zm-101.78-33.42s3.68-11.55,6.13-18.3c2.45-6.76,4.66-11.79,6.32-13.51,1.66-1.72,1.9-2.09,9.45-2.64,7.54-.55,38.52-1.35,51.77-1.11,13.25.25,37.05,1.17,39.32,1.72,2.27.55,4.42,2.95,6.69,8.48,2.27,5.53,5.83,15.66,6.87,18.91,1.04,3.26,1.84,5.5,1.84,5.5,0,0,.58-5.74,2.67-7.15,2.09-1.41,8.8-.77,9.97-.03,1.17.74,1.78,1.87,2.09,5.9.31,4.02.08,6.49-.21,7.2-.29.71-.78.74-.78.74,0,0,1.53,2.82.06,4.42-1.47,1.6-4.42.74-5.49.71-1.07-.03-3.34-.92-3.59.18-.25,1.11-.08,3.63.44,3.9,6.22,3.21,9.59,14.03,10.72,18.58,1.35,5.4.67,8.9.67,8.9,0,0,.31,1.97.28,3.75-.03,1.78-.25,2.58-.25,2.58,0,0,1.53,1.01,2.15,3.93.61,2.92,1.17,7.34,1.32,10.72.15,3.38.37,7.17.37,7.17,0,0-.44-.43-.49.08-.05.51.51,1.04.51,1.04l-.02,3.78s-.25.12-.29.88c-.05.75.35.83.35.83l.06,1.66s-.4.64-.34,1.21c.06.57.34.87.34.87l-.09,3.78s-.34,1.41-.28,2.03c.06.61.21.58.21.58,0,0-.21,1.01-.15,1.75.06.74.06.95.06.95,0,0-.18,2-.25,2.79-.06.8-.29,3.76-.29,3.76,0,0-.08,2.32-.29,3.67-.21,1.35-.31,3.62-.46,4.64-.27,1.79-2.26,8.08-4.28,8.14l-16.16-.05c-1.97.05-4.6-3.51-5.11-5.17-.74-2.4-.77-4.45-.77-4.45,0,0-3.13,1.6-5.21.98-2.09-.61-4.23-2.95-4.29-6.39-.06-3.44-.18-7.77-.18-7.77,0,0-5.83-.37-9.75-.95-3.93-.58-7.39-1.38-7.39-1.38l-.43,2.12s-2.67-.55-6.01-.43c-3.34.12-6.01.25-6.03.12-.01-.12-.11-.69-.77-.58-.66.11-1.24.55-1.24.55,0,0-6.38-.09-7.05.03-.67.12-1.66.03-3.8-.12-2.15-.15-5.15.21-5.95.12-.8-.09-2.79-.09-4.05-.25-1.26-.15-2.3.12-2.3.12h-5.95s-.06-.25-.43-.34c-.37-.09-5,.09-5.55.25-.55.15-4.54.09-6.41.03-1.87-.06-2.52.09-2.82.12-.31.03-1.07.46-.95-.31.12-.77-.09-1.84-.09-1.84,0,0-2.67,1.04-5.09,1.38-2.42.34-12.82,1.5-12.82,1.5,0,0-.03,9.33-.4,10.32-.37.98-2.02,3.16-3.65,3.62-1.63.46-5.34.68-5.34.68-.6,1.47-2.45,7.96-5.11,8.01-2.46.05-13.6-.05-17.19.03-2.52.06-4.18-5.5-4.51-7.65-.52-3.38-.45-7.17-.43-7.71.02-.54-.54-.78-.48-2.04.06-1.26.09-4.02.09-4.02,0,0-.37-.68-.21-2.86.15-2.18.31-2.98.31-3.29s-.43-.92-.4-2.3c.03-1.38.09-1.97.25-2.52.15-.55,0-1.26-.03-1.57-.03-.31-.22-.86-.15-1.93.06-1.07.12-1.87.18-2.12.06-.25-.03-1,.01-1.54.05-.54-.08-1.4.08-1.97.15-.57.23-.78.05-1.18-.18-.4-.02-1.69-.02-1.87s-.06-1.41.12-1.97c.18-.55.21-.89.18-1.23-.03-.34-.09-1.23.02-1.63.11-.4.23-.75.18-.97-.05-.22-.2-1.12.08-1.73.28-.61-.02-.69-.02-1.12s.15-1,.29-1.47c.14-.48-.08-.92.28-1.43.35-.51.12-1,.09-1.15-.03-.15-.03-.86.18-1.41.21-.55.37-1,.35-1.15-.01-.15.15-.95.26-1.4.11-.45.06-.91.28-1.18.21-.28.44-.38.72-1.15.28-.77.98-.71,1.07-.34.09.37-.28-4.42.46-6.26.74-1.84-.37.61-.61-5.04-.5-11.6,2.63-18.86,11.53-26.28,1.47-1.23,1.96-1.72,1.96-1.72,0,0-.95-1.63-2.82-1.81-1.87-.18-8.37-1.23-8.99-1.57-.61-.34-1.93-1.07-1.96-3.01-.03-1.93.21-9.03.61-9.95.4-.92.31-1.84,4.75-2.24,4.45-.4,7.54-.28,8.53,1.14.98,1.41,2.25,3.69,2.41,5.16.15,1.47.51,2.54.51,2.54Z"/>
  <path class="cls-1" d="m485.76,179.5v1.63s-15.61.1-17.18.1-4.33,1.98-5.71,3.04c-1.38,1.06-1.21,2.51-1.28,4.39-.07,1.88,1.31,2,1.31,2l20.16.13v-9.65h2.72v-1.65h0Zm-102.14,1.27l.1-1.62c-.04.53-.07,1.07-.1,1.62h0Zm2.86.04l-.36,9.37,20.84.15s.92-.34.82-1.83c-.1-1.5-.15-3.79-.6-4.16-.46-.37-4.69-3.2-6.07-3.27-1.01-.05-9.93-.18-14.62-.25h0Zm-2.95,9.35c0-.67-.02-1.35-.02-2.03,0,.67.02,1.35.02,2.03h0Zm17.56-8.42s2.49.71,2.84,3.28c.35,2.57-1.33,4.26-2.75,4.35-1.42.09-13.37-.03-13.37-.03l.19-7.6h13.09Zm-13.74,20.12h10.37c.4,0,.73.33.73.73v4.16c0,.4-.33.73-.73.73h-10.37c-.4,0-.73-.33-.73-.73v-4.16c0-.4.33-.73.73-.73h0Zm83.87.07h10.37c.4,0,.73.33.73.73v4.16c0,.4-.33.73-.73.73h-10.37c-.4,0-.73-.33-.73-.73v-4.16c0-.4.33-.73.73-.73h0Zm-86.76-4.18h99.87s.49.93-.36.93h-99.07s-.55.08-.71-.23c-.16-.31.27-.7.27-.7h0Zm14.6,4.48h48.91v1.2h-48.91v-1.2h0Zm0,2.37h48.91v1.2h-48.91v-1.2h0Zm0,2.22h48.91v1.2h-48.91v-1.2h0Zm-12.1,2.07h57.61v2.63h-56.73s-.93-.53-1.07-1.37.18-1.26.18-1.26h0Zm15.36,6.95h19.35v4.88h-16.25s-1.29-.49-2.4-2.17c-1.11-1.69-.71-2.71-.71-2.71h0Zm21.08-.36h21.26l-.02,4.88h-20.31s-1.15-.53-1.24-2.04c-.09-1.51.31-2.84.31-2.84h0Zm23.39.58h19.09s-.62,4.31-2.8,4.35-16.3-.04-16.3-.04v-4.31h.01Zm-1.21-6.92h37.29c.23,1.41-.38,2.47-1.84,2.71h-35.44v-2.71h0Zm4.04-6.86s-.06,4.53-.04,5.35c.01.82,5.26,1.07,5.28-.35.02-1.42,0-3.91,0-3.91h14.86v-1.22h-.16l-19.95.13h0Zm-46.27-41.15c3.33-3.33,8.39-2.45,10.22-.16-.1-2.48-.15-5.67,2.62-6.97,1.73-.64,6.71-1.21,7.82,2.33.52,1.65,1.51,6.14,1.51,6.14,0,0,1.69-.31,2.23-.22s1.93.14,4.14.29c2.2.14,2.21.51,2.21.51,0,0,.13-.05,1.46.07,1.33.12,2.64.43,3.75.6,1.11.17.36.68.36.68,0,0,1.33.05,3.22.1,1.89.05,5.64.22,5.64.22,0,0,.02-.99.05-1.95.02-.97.07-4.9.61-7.89.53-2.99,1.23-2.87,2.54-3.28,1.31-.41,5.83-.27,7.5-.29,1.67-.02,2.3,0,3.34.68,1.04.68,1.52,4.32,1.6,5.14.07.82.23,6.14.23,6.14,3.75-.22,7.37.25,7.8.2.44-.05-1.84-10.14-1.84-10.14,0,0-1.45-5.09-2.42-7.84-.97-2.75-1.45-2.9-3.77-3.28-2.32-.39-16.6-.82-16.6-.82,0,0-34.55-.19-37.59.77-2.9.92-5.71,14.86-6.62,18.98h0Zm-7.4,20.92c2.02,0,3.66,1.64,3.66,3.66s-1.64,3.66-3.66,3.66-3.66-1.64-3.66-3.66,1.64-3.66,3.66-3.66h0Zm-10.54-20.73c1.24-6.93,1.11-7.25,3.66-15.79,2.06-6.89,2.24-9.62,6.46-15.75,0,0,3.92-7.18,12.24-9.17,8.32-2,41.42-2.09,51.58-.95,10.16,1.14,15.31,7.24,16.5,9.59,1.19,2.36,4.21,9.57,5.32,14.9.82,3.95,2.5,12.47,3.31,16.63-.05-1.94-.12-7.36.61-8.17.9-.99,4.77-1.06,6.07-.75,1.31.31,1.91,1.79,2.3,4.88.39,3.09,1.14,7-.99,7.6-2.05.58-7.19,1.43-7.56,1.49.11,2.59.49,5.91.61,8.64-33.81-.25-67.62-.49-101.43-.74.14-2.6.4-5.3.78-8.37-.59-.1-4.41-.76-6.33-1.05-2.08-.31-3.73-.99-3.77-3.02-.05-2.03-.1-7.84.24-8.4.3-.48.45-1.44,1.83-1.62,1.14-.15,6.64-.26,6.91.6.38,1.2,1.2,7.31.96,8.08-.24.77-.99,1.42-.54,1.54.27.07.8.17,1.18.23l.06-.41h0Zm-1.51,35.22s-.61,1.34-.65,2.79c-.05,1.45.19,13.22.48,15.4.29,2.17.77,5.6,1.16,6.66.39,1.06.82,1.54.82,1.54,0,0,.29,9.22.29,13.42s.85,8.01,1.45,8.76c.6.75,1.11.53,1.84.53s6.94-.05,6.94-.05c0,0,1.04-1.38,1.14-2.58.1-1.21.27-2.53.27-2.53l5.08.05s1.14-1.54,1.19-2.51c.05-.97.02-2.7.02-2.7,0,0,5.61.14,5.83.1.22-.05.34-.53.14-.82-.19-.29-.28-.75.11-.77.39-.02.68-.18.75.16.07.34.23,1.63.42,1.7.19.07,1.72.02,1.72.02l-.24-2.34s6.41-1.03,7.14-1.32c.73-.29,1.92-1.53,2.06-1.57.13-.04,1.92.59,2.38.77.46.18.87.16,1.08.06.21-.1.18-.11.29.13.11.24.35.43,1.16.36.81-.07,1.56-.11,1.69-.29.13-.18.37-.41.48-.22.11.19.68.3,1.33.19.65-.11,1.44-.27,1.44-.27,0,0,.19.28.58.22.39-.06.47-.31.47-.31l4.17.02s.31.29.68.29.85-.16.85-.16c0,0,1.04.12,1.28.14.24.02.96.08,1.22.06.27-.02.5-.12.5-.12,0,0,.07.45.52.47.45.02,2.48-.04,2.49-.21.01-.17.1-.47.1-.47,0,0,.48.33.82.3.34-.02.82-.34.82-.34h2.83s1.7,1.23,2.08,1.33c.37.1,8.53,1.51,8.53,1.51l.12,2.53s1.15-.02,1.28-.12c.13-.1.18-.46.37-.39.19.07.28.24.67.18.39-.06,8.08-.19,8.08-.19l.07,1.46s-.38.95-.15,1.67c.23.71,2.54,2.12,2.88,1.83.34-.29-.39,4.05,1.31,4.68,1.69.63,7.84.72,8.52-.05.68-.77,1.02-1.74.92-3.52-.1-1.79.24-9.6.14-11.73-.1-2.12.1-7.1.1-7.1,0,0,1.6-3.72,1.69-7.24.1-3.52.08-18.89.08-18.89l-101.83-.54h0Zm95.99-14.43c1.38,2.13.97,5.3.31,7.63h-17.27s-1.29-2.75,1.2-5.02c2.49-2.26,3.86-2.57,6.79-2.75,2.93-.18,8.97.13,8.97.13h0Zm-6.17.35c1.86,0,3.37,1.51,3.37,3.37s-1.51,3.37-3.37,3.37-3.37-1.51-3.37-3.37,1.51-3.37,3.37-3.37h0Zm-72.97-17.42s-1.89.27-2.87.4c-.98.13-1.8.47-2.69.42-.89-.04-1.07.22-1.07.22,0,0-.47-.04-3.37-.07-2.91-.02-3.04-1.49-2.69-3.22.36-1.73,1.73-10.25,2.93-13.89,1.2-3.64,4.39-14.34,6.7-17.71,2.31-3.37,13.32-2.8,13.32-2.8,0,0,52.2-.04,57.44.18,5.24.22,5.99,4.79,7.95,10.08,1.95,5.28,5.41,21.04,5.95,25.08.53,4.04-3.51,3.91-3.51,3.91l-37.51-.49,11.14-2.26s22.68.09,24.99.13c2.31.04,2.4.04,2.22-1.82-.18-1.86-3.28-17.4-6.13-25.39-2.84-7.99-10.12-7.1-10.12-7.1,0,0-59.08-.36-61.52,0-2.44.36-3.15,1.38-5.55,7.68-2.4,6.3-5.99,22.02-6.39,24.39-.4,2.37.78,2,.78,2l9.99.27h0Zm2.15-.38s2.35-3.42,5.15-3.68c2.8-.27,5.1,2.97,5.1,2.97l-10.25.71h0Zm59.12,40.75h3.82v2.71h-3.82v-2.71h0Zm-29.99-22.3c-.7-.02-.99-.24-1.09.53-.04.36.13,3.46.24,4.44.11.98,1.04.55,1.04.55l-.2-5.53h0Zm.98-.06c.02.61.27,3.22.93,3.31,0,0,.67,0,1.42-.04.75-.04,1.05-3.28,1.05-3.28l-3.41.02h0Zm.44,5.87l2.44-.04-.51-1.68-1.39.04c-.07.03-.54,1.68-.54,1.68h0Zm3.73-5.89s-.13,4.86-.11,5.3c.02.44,1.15.13,1.15.13,0,0,.2-4.31.18-4.99-.02-.69-1.22-.44-1.22-.44h0Zm-6.39,5.87s-.89-4.97-.36-5.77c.53-.8,2.11-1.18,5.3-1,3.2.18,3.4.55,3.4,1.93s.07,4.84-.84,5.06c-.91.22-6.28.42-6.82.32-.54-.1-.68-.54-.68-.54h0Zm-46.56-14.1l101.31.87.19,3.81-18.94.22s-1.89.8-4.43,2.49c-2.54,1.69-3.14,2.49-3.19,3.74-.05,1.25-.17,5.19-.17,5.19,0,0-.12,1.74,2.1,1.71,2.23-.02,24.71.15,24.71.15l.02,2.61-102.28-.87c0-.73,0-1.49-.01-2.27,0,0,22.81-.05,24.58,0,1.77.05,1.74-.43,1.96-1.21.22-.77-.05-4.92-.24-6.64-.19-1.71-7.04-5-8.01-5.16-.97-.17-18.11-.31-18.12-.31.11-1.52.28-2.97.53-4.32Z"/>
</svg>